<?xml version="1.0" encoding="UTF-8"?>
<svg xmlns="http://www.w3.org/2000/svg" id="Layer_1" data-name="Layer 1" viewBox="0 0 24 24">
  <path fill="white" d="m15.95,2c-.232-1.14-1.242-2-2.45-2h-3c-1.208,0-2.217.86-2.45,2H3v19.5c0,1.378,1.122,2.5,2.5,2.5h13c1.378,0,2.5-1.122,2.5-2.5V2h-5.05Zm4.05,19.5c0,.827-.673,1.5-1.5,1.5H5.5c-.827,0-1.5-.673-1.5-1.5V3h5v-.5c0-.827.673-1.5,1.5-1.5h3c.827,0,1.5.673,1.5,1.5v.5h5v18.5Zm-7.5-13.5h3v1h-3v3h-1v-3h-3v-1h3v-3h1v3Zm-5.5,7h10v1H7v-1Zm0,4h7v1h-7v-1Z"/>
</svg>
