<?xml version="1.0" encoding="UTF-8"?>
<svg xmlns="http://www.w3.org/2000/svg" id="Layer_1" data-name="Layer 1" viewBox="0 0 24 24">
  <path fill="white" d="m16.49,8c-.273,0-.498-.222-.5-.495l-.025-2.552c1.156-.219,2.035-1.233,2.035-2.453,0-1.379-1.122-2.5-2.5-2.5h-7c-1.378,0-2.5,1.121-2.5,2.5,0,1.208.86,2.217,2,2.449v2.551c0,.275-.224.5-.5.5-2.481,0-4.5,2.019-4.5,4.5v7c0,2.481,2.019,4.5,4.5,4.5h9c2.481,0,4.5-2.019,4.5-4.5v-7c0-2.481-2.019-4.5-4.51-4.5ZM7,2.5c0-.827.673-1.5,1.5-1.5h7c.827,0,1.5.673,1.5,1.5s-.673,1.5-1.5,1.5h-7c-.827,0-1.5-.673-1.5-1.5Zm13,17c0,1.93-1.57,3.5-3.5,3.5H7.5c-1.93,0-3.5-1.57-3.5-3.5v-7c0-1.93,1.57-3.5,3.5-3.5.827,0,1.5-.673,1.5-1.5v-2.5h5.966l.025,2.515c.008.819.681,1.485,1.51,1.485,1.93,0,3.5,1.57,3.5,3.5v7Zm-4-3.5c0,.276-.224.5-.5.5h-3v3c0,.276-.224.5-.5.5s-.5-.224-.5-.5v-3h-3c-.276,0-.5-.224-.5-.5s.224-.5.5-.5h3v-3c0-.276.224-.5.5-.5s.5.224.5.5v3h3c.276,0,.5.224.5.5Z"/>
</svg>
