<?xml version="1.0" encoding="UTF-8"?>
<svg xmlns="http://www.w3.org/2000/svg" id="Layer_1" data-name="Layer 1" viewBox="0 0 24 24">
  <path fill="white" d="m23.272,6.595l.715-.699L18.237.021l-.715.699,2.612,2.669-2.787,2.581-1.237-1.237c-.974-.975-2.561-.974-3.536,0L3,14.292v6L.041,23.252l.707.707,2.959-2.959h6l9.575-9.561c.975-.975.975-2.561,0-3.536l-1.227-1.227,2.779-2.574,2.438,2.491Zm-4.698,4.137l-9.282,9.268h-5.293v-5.274l2.699,2.7.707-.707-2.708-2.708,2.295-2.291,2.706,2.707.707-.707-2.706-2.706,2.295-2.291,2.704,2.705.707-.707-2.704-2.704,2.579-2.575c.584-.584,1.536-.585,2.122,0l3.171,3.171c.585.585.585,1.537,0,2.121Z"/>
</svg>
